<?xml version="1.0" encoding="utf-8"?>
<!-- Generator: Adobe Illustrator 24.0.3, SVG Export Plug-In . SVG Version: 6.00 Build 0)  -->
<svg version="1.1" id="Layer_1" xmlns="http://www.w3.org/2000/svg" xmlns:xlink="http://www.w3.org/1999/xlink" x="0px" y="0px"
	 viewBox="0 0 1000 1000" style="enable-background:new 0 0 1000 1000;" xml:space="preserve">
<style type="text/css">
	.st0{fill:#181818;}
</style>
<path class="st0" d="M644.99,390.03c-0.79-25.11-9.39-48.25-23.47-67.07c-6.83-9.13-14.94-17.24-24.06-24.07
	c-19.77-14.78-44.31-23.53-70.89-23.53H419.04c-20.06,0-37.99,9.16-49.83,23.53c-9.18,11.14-14.69,25.43-14.69,40.99v50.15v122.06
	v98.85h0.08c0.85,24.99,9.44,48.01,23.46,66.75c6.83,9.13,14.94,17.24,24.06,24.07c19.77,14.78,44.31,23.53,70.89,23.53h107.53
	c20.06,0,37.99-9.16,49.83-23.53c9.18-11.14,14.69-25.43,14.69-40.99v-49.83V488.56v-98.53H644.99z M378.05,535.92v-23.83V390.03
	v-52.98c0-21.07,17.09-38.16,38.16-38.16h110.36c51.16,0,92.87,40.47,94.87,91.14c0.05,1.27,0.08,2.54,0.08,3.82
	c0,3.34-0.17,6.64-0.51,9.89c-4.72,45.6-41.7,81.61-87.73,84.82h-67.96c-1.02,0.07-2.04,0.14-3.05,0.24
	c-22.44,2.01-43.07,10.28-60.16,23.05c-0.11,0.08-0.21,0.16-0.32,0.24c-8.99,6.77-16.99,14.8-23.73,23.82
	C378.06,535.91,378.06,535.92,378.05,535.92z M621.53,610.94v52.66c0,21.07-17.09,38.16-38.16,38.16H473.01
	c-52.44,0-94.95-42.52-94.95-94.96c0-50.19,38.94-91.28,88.25-94.71h67.95c1.03-0.07,2.06-0.14,3.09-0.24
	c22.42-2.02,43.04-10.28,60.12-23.05c0.11-0.08,0.21-0.16,0.32-0.24c8.77-6.6,16.59-14.4,23.22-23.15c0.17-0.22,0.34-0.45,0.51-0.67
	c0,0,0-0.01,0.01-0.01v23.83V610.94z"/>
</svg>
